<svg xmlns="http://www.w3.org/2000/svg" xmlns:xlink="http://www.w3.org/1999/xlink" viewBox="0 0 34 34"><path d="M 32.1 17.2 C 32.1 17.3 32 17.3 31.9 17.2 C 31.9 17.2 31.9 17.1 31.8 17.1 L 31.8 16.9 L 31.9 16.8 C 32 16.7 32.1 16.7 32.1 16.8 Z M 31.4 15.2 C 31.3 15.4 31 15.4 30.9 15.2 C 30.9 15.2 30.9 15.1 30.8 15.1 C 30.3 14.4 29.8 13.7 29.2 13 C 29.1 12.8 29.2 12.6 29.4 12.6 C 30.8 12.6 31.5 12.9 31.7 13.4 C 31.9 13.7 31.9 14.3 31.4 15.2 Z M 31.1 22.4 C 31 22.6 30.9 22.8 30.9 23 L 30.9 23.1 C 30.4 24.1 29.5 24.8 28.4 25.4 C 28.1 25.5 27.9 25.3 27.9 25 C 28.3 23.7 28.6 22.2 28.7 20.7 C 28.7 20.4 28.9 20.2 29.1 20 C 29.6 19.6 30 19.2 30.4 18.8 C 30.6 18.6 30.9 18.7 31 19 C 31.4 20.1 31.5 21.3 31.1 22.4 Z M 28 27.2 L 27.6 27.6 L 27 28.2 C 26.9 28.3 26.7 28.2 26.7 28 C 26.7 28 26.7 27.9 26.8 27.9 L 27.1 27.3 L 27.2 27.2 C 27.4 27.1 27.6 27.1 27.8 27 C 28 26.9 28.1 27.1 28 27.2 Z M 25.7 26 C 25.2 26.1 24.8 26.1 24.3 26.1 C 23.1 26.1 21.8 26 20.4 25.8 C 20.2 25.8 20.2 25.5 20.4 25.5 C 20.7 25.4 21 25.2 21.3 25 C 23.3 23.9 25.3 22.7 26.9 21.5 C 27 21.4 27.2 21.5 27.2 21.7 C 27 23.1 26.6 24.4 26.2 25.6 C 26.1 25.8 26 26 25.7 26 Z M 25.3 27.9 C 24.2 30.1 22.9 31.3 21.5 31.2 C 20.1 31.2 18.7 29.7 17.6 27.1 C 17.5 26.9 17.6 26.8 17.8 26.7 L 18 26.7 C 20 27.3 21.9 27.5 23.7 27.5 L 25 27.5 C 25.2 27.5 25.4 27.7 25.3 27.9 Z M 18.8 32 C 18.1 32.1 17.5 32.1 16.8 32.1 C 13.8 32.1 11 31.3 8.5 29.7 C 8.3 29.6 8.4 29.3 8.6 29.3 L 8.7 29.3 C 9.3 29.3 10 29.2 10.7 29 C 12.3 28.7 14 28.2 15.9 27.5 C 16.1 27.4 16.2 27.5 16.3 27.7 C 17 29.4 17.9 30.7 18.9 31.6 C 19.1 31.7 19 31.9 18.8 32 Z M 9.9 21.2 C 11.3 20.1 12.8 19 14.6 18 C 14.6 20.2 14.9 22.4 15.3 24.3 C 14.7 24 14 23.7 13.4 23.4 C 12.1 22.7 11 22 9.9 21.2 Z M 5.7 27.2 C 5.4 26.6 5.8 25.2 7.9 23 C 8.1 22.8 8.1 22.4 7.9 22.2 C 7.8 22.1 7.7 22.1 7.6 22 C 7.4 21.8 7.1 21.8 6.9 22 L 6.8 22.1 C 5.7 23.2 5 24.2 4.6 25.1 C 4.5 25.4 4.1 25.4 4 25.1 C 2.4 22.6 1.5 19.7 1.5 16.7 C 1.5 15.6 1.6 14.5 1.8 13.5 C 1.8 13.3 2.1 13.3 2.1 13.5 C 2.4 14.6 2.9 15.6 3.7 16.7 C 4.7 18.2 5.9 19.6 7.4 20.9 C 7.9 21.3 8.5 21.8 9 22.2 C 10.1 23 11.4 23.8 12.7 24.5 C 13.3 24.8 13.9 25.1 14.4 25.4 C 14.7 25.5 15.1 25.6 15.4 25.4 C 15.7 25.3 16 25.2 16.2 25.1 C 16.5 25 16.7 24.6 16.6 24.3 L 16.6 24.2 C 16.1 22.3 15.9 20.1 15.9 17.8 L 15.9 15.6 C 16 12.8 16.5 10.2 17.3 8 C 17.4 7.8 17.3 7.6 17.1 7.5 C 16.9 7.4 16.7 7.4 16.5 7.3 C 16.3 7.2 16.1 7.3 16 7.5 C 15.2 9.9 14.7 12.7 14.6 15.7 C 14.6 16.1 14.4 16.4 14.1 16.6 C 12.3 17.6 10.7 18.8 9.3 19.9 C 9 20.1 8.6 20.1 8.3 19.9 C 6.9 18.7 5.7 17.4 4.8 16 C 3 13.3 2.6 10.8 3.6 8.8 C 3.8 8.6 3.9 8.4 4 8.2 C 5.1 6.7 7.3 5.8 10.1 5.7 L 10.6 5.7 C 12.3 5.7 14.2 6 16.1 6.5 L 16.3 6.5 C 16.7 6.6 17.2 6.8 17.6 6.9 C 17.7 6.9 17.8 7 17.9 7 L 18.1 7 C 19 7.4 20 7.8 20.9 8.3 C 22.7 9.2 24.3 10.3 25.7 11.5 C 23 12.1 19.9 13.3 16.7 14.9 C 16.6 15 16.5 15.1 16.5 15.3 L 16.5 16.2 C 16.5 16.4 16.7 16.5 16.9 16.4 C 20 14.8 23.1 13.5 25.8 12.9 C 26.3 12.8 26.6 12.3 26.6 11.8 C 26.6 11.4 26.5 11.1 26.4 10.8 C 26.3 10.4 26.1 10 25.7 9.7 C 24.5 8.7 23.1 7.9 21.6 7.1 C 20.6 6.6 19.6 6.1 18.6 5.7 C 18.4 5.6 18.3 5.4 18.4 5.2 C 19.4 3.3 20.7 2.3 21.9 2.3 C 23.3 2.3 24.7 3.8 25.8 6.4 C 26.3 7.7 26.7 9.2 27 10.8 L 27.3 12.9 C 27.4 14.1 27.5 15.4 27.4 16.7 C 27.4 17.5 27.3 18.3 27.3 19.1 C 25.4 20.6 23 22.2 20.5 23.5 C 19.7 24 18.8 24.4 18 24.8 C 17.9 24.8 17.9 24.9 17.8 24.9 L 15.7 25.8 L 15.6 25.8 C 15.6 25.8 15.5 25.8 15.5 25.9 C 15.4 25.9 15.3 26 15.2 26 L 15.1 26 C 15 26.1 14.8 26.1 14.7 26.1 L 14.6 26.1 C 13.1 26.6 11.8 27 10.5 27.3 C 7.5 28.2 6 27.8 5.7 27.2 Z M 7.9 4.2 C 10.5 2.4 13.6 1.4 16.8 1.4 C 17.7 1.4 18.5 1.5 19.3 1.6 C 19.5 1.6 19.6 1.9 19.4 2.1 C 18.6 2.7 17.9 3.7 17.2 4.9 C 17 5.2 16.7 5.3 16.4 5.2 C 14.2 4.6 12.1 4.3 10.1 4.4 C 9.4 4.4 8.7 4.4 8 4.5 C 7.8 4.6 7.7 4.3 7.9 4.2 Z M 29 15.4 C 29 15.2 29.2 15.1 29.3 15.3 C 29.4 15.5 29.5 15.7 29.7 15.8 C 29.9 16 30 16.3 30.1 16.5 C 30.2 16.6 30.2 16.8 30.1 17 C L 29.5 17.6 L 29.3 17.8 C 29.2 17.9 29 17.8 29 17.7 Z M 27.4 5.6 L 27.7 5.9 C 29.2 7.4 30.3 9.1 31.1 11 C 31.2 11.2 31 11.4 30.8 11.4 C 30.4 11.3 29.9 11.3 29.3 11.3 C 28.9 11.3 28.6 11 28.5 10.7 C 28.2 9 27.8 7.5 27.2 6.1 C 27.2 6 27.1 5.9 27.1 5.9 C 27 5.6 27.2 5.5 27.4 5.6 Z M 33.2 13.3 C 32.5 10.2 31 7.3 28.7 4.9 C 25.5 1.7 21.3 0 16.8 0 C 12.3 0 8.1 1.7 5 4.9 C 4.2 5.7 3.5 6.5 3 7.4 C 2.7 7.6 2.6 7.9 2.4 8.1 C 0.9 10.7 0 13.6 0 16.7 C 0 21.2 1.7 25.4 4.9 28.5 C 8.1 31.7 12.3 33.4 16.7 33.4 C 21.2 33.4 25.4 31.7 28.5 28.5 C 30 27 31.2 25.3 32 23.4 L 32.3 22.8 C 33.1 20.9 33.4 18.8 33.4 16.7 C 33.5 15.6 33.4 14.4 33.2 13.3 Z" fill="rgb(255, 255, 255)"></path></svg>
